<svg xmlns="http://www.w3.org/2000/svg" viewBox="0 0 64 64">
  <ellipse cx="19" cy="52" rx="6.5" ry="5" fill="#f0954a"/><ellipse cx="45" cy="52" rx="6.5" ry="5" fill="#f0954a"/>
  <path d="M14 25 L18 8 L31 19 Z" fill="#f4a64b"/><path d="M50 25 L46 8 L33 19 Z" fill="#f4a64b"/>
  <path d="M17 21 L19 12 L26 19 Z" fill="#f8cfa0"/><path d="M47 21 L45 12 L38 19 Z" fill="#f8cfa0"/>
  <circle cx="32" cy="33" r="19" fill="#f4a64b"/>
  <path d="M32 15 v8 M24 17 l3 7 M40 17 l-3 7" stroke="#e07e2e" stroke-width="2" stroke-linecap="round" fill="none"/>
  <circle cx="25" cy="32" r="2.7" fill="#3a2a1a"/><circle cx="39" cy="32" r="2.7" fill="#3a2a1a"/>
  <path d="M32 36 v2" stroke="#3a2a1a" stroke-width="1.4" stroke-linecap="round"/>
  <ellipse cx="32" cy="35.6" rx="1.7" ry="1.2" fill="#e36b6b"/>
  <path d="M30 38.5 q2 2 4 0" stroke="#3a2a1a" stroke-width="1.5" fill="none" stroke-linecap="round"/>
  <path d="M22 34 h-8 M22 37 h-7 M42 34 h8 M42 37 h7" stroke="#caa37a" stroke-width="1" stroke-linecap="round"/>
  <circle cx="19" cy="37" r="3" fill="#f6b0b0" opacity=".6"/><circle cx="45" cy="37" r="3" fill="#f6b0b0" opacity=".6"/>
</svg>